#!OML:ASF F:\VICON\USERDATA\INSTALL\rory3\rory3.ASF
:FULLY-SPECIFIED
:DEGREES
320
root 0.999145 19.0889 -8.70076 169.761 -45.5173 185.27
lowerback 18.9916 -1.14161 0.501527
upperback -1.29996 -1.15627 2.92597
thorax -12.1127 -0.494659 3.31453
lowerneck 3.06592 -14.4735 -8.05014
upperneck -8.82173 -19.5963 5.55378
head -1.97873 -9.77503 3.39939
rclavicle 2.68856e-014 6.12257e-014
rhumerus 61.6948 -13.5951 -58.0108
rradius 24.4481
rwrist 37.3797
rhand 11.107 0.8672
rfingers 7.12502
rthumb 36.1755 -25.406
lclavicle 2.68856e-014 6.12257e-014
lhumerus 73.4768 -15.9974 62.3445
lradius 72.7446
lwrist 41.343
lhand -22.7779 53.0609
lfingers 7.12502
lthumb 3.65756 83.0093
rfemur -5.74884 -3.8063 26.3115
rtibia 33.382
rfoot 10.3052 -9.86282
rtoes -4.09678
lfemur -8.11475 -11.5671 -14.7729
ltibia 33.2104
lfoot 16.535 -8.38679
ltoes -12.0212
321
root 0.975283 19.1112 -8.64122 172.757 -46.1901 182.241
lowerback 18.5677 -1.14328 -0.563313
upperback -1.69222 -1.45094 2.11148
thorax -12.2925 -0.570252 3.09191
lowerneck 2.65069 -14.5129 -8.01216
upperneck -8.24167 -19.6085 5.39542
head -1.73251 -9.78037 3.26364
rclavicle -2.09159e-014 1.07344e-014
rhumerus 61.4065 -13.8069 -58.0944
rradius 24.3501
rwrist 37.5346
rhand 10.7743 0.910741
rfingers 7.12502
rthumb 35.8604 -25.44
lclavicle -2.09159e-014 1.07344e-014
lhumerus 73.1098 -16.1148 61.9454
lradius 72.5586
lwrist 41.8326
lhand -22.3813 53.2958
lfingers 7.12502
lthumb 4.04061 83.2373
rfemur -6.72215 -5.38265 23.4124
rtibia 33.3897
rfoot 11.2411 -8.03627
rtoes -5.68746
lfemur -8.89538 -12.0768 -17.3257
ltibia 32.8367
lfoot 17.1709 -7.47712
ltoes -10.6255
322
root 0.988853 19.1347 -8.66738 171.561 -46.0532 183.543
lowerback 18.3585 -1.00689 -0.229715
upperback -1.44277 -1.1635 2.59703
thorax -11.8998 -0.45618 3.34614
lowerneck 2.61389 -14.5459 -8.25474
upperneck -8.07721 -19.6463 5.51445
head -1.63282 -9.7983 3.31675
rclavicle -2.21024e-014 7.55382e-015
rhumerus 61.3535 -14.0599 -57.8044
rradius 24.2803
rwrist 37.5192
rhand 10.5015 1.07009
rfingers 7.12502
rthumb 35.6018 -25.3433
lclavicle -2.21024e-014 7.55382e-015
lhumerus 73.0444 -16.3045 62.4394
lradius 72.4163
lwrist 41.4646
lhand -22.2213 53.4422
lfingers 7.12502
lthumb 4.1951 83.3807
rfemur -6.31118 -5.01544 24.5294
rtibia 33.0819
rfoot 11.761 -8.33834
rtoes -5.97854
lfemur -8.5938 -11.7701 -16.2104
ltibia 32.6585
lfoot 17.656 -7.62967
ltoes -10.7661
323
root 1.02893 19.1525 -8.7269 168.729 -45.2935 186.335
lowerback 19.2853 -0.686846 1.29838
upperback -1.41098 -0.345802 3.04756
thorax -12.4558 -0.163429 2.77298
lowerneck 2.42352 -14.5462 -9.60477
upperneck -6.93096 -19.5834 6.92952
head -0.939819 -9.78314 3.84809
rclavicle 6.95249e-014 -7.95139e-016
rhumerus 60.4024 -14.7625 -57.7923
rradius 24.2676
rwrist 37.6767
rhand 10.4927 1.17904
rfingers 7.12502
rthumb 35.5935 -25.2363
lclavicle 6.95249e-014 -7.95139e-016
lhumerus 72.8543 -17.3932 62.6751
lradius 72.3031
lwrist 41.2911
lhand -22.1424 53.743
lfingers 7.12502
lthumb 4.27128 83.6799
rfemur -5.19886 -3.69992 27.1994
rtibia 32.5938
rfoot 11.9038 -10.2903
rtoes -2.20279
lfemur -7.69757 -10.9776 -13.7169
ltibia 32.5525
lfoot 18.0548 -8.12667
ltoes -11.0361
324
root 1.0471 19.1649 -8.73944 167.728 -45.123 187.278
lowerback 19.6153 -0.635608 1.65587
upperback -1.34908 -0.167137 3.34303
thorax -12.5848 -0.0992582 2.85628
lowerneck 3.2654 -14.7515 -8.70205
upperneck -7.7224 -19.9314 6.15538
head -1.49308 -9.95017 3.60532
rclavicle 2.2736e-014 -7.15625e-015
rhumerus 60.3348 -14.7742 -57.8573
rradius 24.1837
rwrist 37.5884
rhand 10.4006 1.07778
rfingers 7.12502
rthumb 35.5062 -25.3586
lclavicle 2.2736e-014 -7.15625e-015
lhumerus 72.585 -17.5086 62.9887
lradius 72.2167
lwrist 41.269
lhand -21.7355 54.1317
lfingers 7.12502
lthumb 4.66417 84.0604
rfemur -4.51768 -3.58274 28.0398
rtibia 31.8891
rfoot 11.2675 -12.8785
rtoes 9.19457
lfemur -7.39953 -10.691 -12.838
ltibia 32.5399
lfoot 18.5603 -7.8705
ltoes -8.6736
325
root 1.04873 19.1846 -8.731 168.045 -45.3844 186.948
lowerback 19.5254 -0.681681 1.47638
upperback -1.41669 -0.272731 3.27573
thorax -12.6056 -0.135352 2.91415
lowerneck 3.59498 -14.7714 -7.90202
upperneck -8.19 -19.995 5.41683
head -1.86101 -9.97174 3.33732
rclavicle -6.61829e-014 -2.34566e-014
rhumerus 59.5978 -14.5803 -57.051
rradius 24.5855
rwrist 36.7251
rhand 10.1866 1.01855
rfingers 7.12502
rthumb 35.3033 -25.4661
lclavicle -6.61829e-014 -2.34566e-014
lhumerus 72.2335 -17.4473 62.946
lradius 72.0592
lwrist 41.547
lhand -21.3965 54.071
lfingers 7.12502
lthumb 4.99152 83.9922
rfemur -4.46957 -3.58131 27.6393
rtibia 31.3809
rfoot 11.9408 -12.9025
rtoes 8.99682
lfemur -7.4734 -10.7307 -13.1096
ltibia 32.3828
lfoot 19.186 -7.28955
ltoes -6.31839
